<?xml version="1.0" encoding="UTF-8" standalone="no"?>
<!-- Created with Inkscape (http://www.inkscape.org/) -->

<svg
   xmlns:dc="http://purl.org/dc/elements/1.1/"
   xmlns:cc="http://creativecommons.org/ns#"
   xmlns:rdf="http://www.w3.org/1999/02/22-rdf-syntax-ns#"
   xmlns:svg="http://www.w3.org/2000/svg"
   xmlns="http://www.w3.org/2000/svg"
   xmlns:xlink="http://www.w3.org/1999/xlink"
   xmlns:sodipodi="http://sodipodi.sourceforge.net/DTD/sodipodi-0.dtd"
   xmlns:inkscape="http://www.inkscape.org/namespaces/inkscape"
   version="1.0"
   width="363"
   height="318"
   id="svg2"
   style="enable-background:new"
   inkscape:version="0.48.3.1 r9886"
   sodipodi:docname="logo.svg"
   inkscape:export-filename="/home/bart/workspace/imp/docs/IMP/en-US/images/logo.png"
   inkscape:export-xdpi="90"
   inkscape:export-ydpi="90">
  <metadata
     id="metadata3416">
    <rdf:RDF>
      <cc:Work
         rdf:about="">
        <dc:format>image/svg+xml</dc:format>
        <dc:type
           rdf:resource="http://purl.org/dc/dcmitype/StillImage" />
        <dc:title></dc:title>
      </cc:Work>
    </rdf:RDF>
  </metadata>
  <sodipodi:namedview
     pagecolor="#ffffff"
     bordercolor="#666666"
     borderopacity="1"
     objecttolerance="10"
     gridtolerance="10"
     guidetolerance="10"
     inkscape:pageopacity="0"
     inkscape:pageshadow="2"
     inkscape:window-width="1600"
     inkscape:window-height="841"
     id="namedview3414"
     showgrid="false"
     inkscape:zoom="2.0220126"
     inkscape:cx="207.87641"
     inkscape:cy="167.5942"
     inkscape:window-x="0"
     inkscape:window-y="27"
     inkscape:window-maximized="1"
     inkscape:current-layer="svg2"
     showguides="true"
     inkscape:guide-bbox="true">
    <sodipodi:guide
       orientation="0,1"
       position="77.645413,158.75272"
       id="guide3078" />
  </sodipodi:namedview>
  <defs
     id="defs5">
    <linearGradient
       id="linearGradient6430">
      <stop
         id="stop6432"
         style="stop-color:#ce0000;stop-opacity:1"
         offset="0" />
      <stop
         id="stop6434"
         style="stop-color:#e90000;stop-opacity:1"
         offset="1" />
    </linearGradient>
    <linearGradient
       id="linearGradient3218">
      <stop
         id="stop3220"
         style="stop-color:#000000;stop-opacity:1"
         offset="0" />
      <stop
         id="stop3222"
         style="stop-color:#555753;stop-opacity:1"
         offset="1" />
    </linearGradient>
    <linearGradient
       id="linearGradient3210">
      <stop
         id="stop3212"
         style="stop-color:#edd400;stop-opacity:1"
         offset="0" />
      <stop
         id="stop3214"
         style="stop-color:#fce94f;stop-opacity:1"
         offset="1" />
    </linearGradient>
    <linearGradient
       id="linearGradient3558">
      <stop
         id="stop3560"
         style="stop-color:#4bc6ff;stop-opacity:1"
         offset="0" />
      <stop
         id="stop3562"
         style="stop-color:#1fb7ff;stop-opacity:0"
         offset="1" />
    </linearGradient>
    <linearGradient
       id="linearGradient2652">
      <stop
         id="stop2654"
         style="stop-color:#ef5d29;stop-opacity:1"
         offset="0" />
      <stop
         id="stop2656"
         style="stop-color:#ef2929;stop-opacity:0"
         offset="1" />
    </linearGradient>
    <linearGradient
       id="linearGradient3770">
      <stop
         id="stop3772"
         style="stop-color:#999999;stop-opacity:0"
         offset="0" />
      <stop
         id="stop3774"
         style="stop-color:#cccccc;stop-opacity:1"
         offset="0.28968501" />
      <stop
         id="stop3776"
         style="stop-color:#cccccc;stop-opacity:1"
         offset="0.72421253" />
      <stop
         id="stop3778"
         style="stop-color:#999999;stop-opacity:0"
         offset="1" />
    </linearGradient>
    <linearGradient
       id="linearGradient3578">
      <stop
         id="stop3580"
         style="stop-color:#000000;stop-opacity:1;"
         offset="0" />
      <stop
         id="stop3582"
         style="stop-color:#ffffff;stop-opacity:1"
         offset="1" />
    </linearGradient>
    <linearGradient
       x1="292.98209"
       y1="248.94519"
       x2="292.71686"
       y2="254.84595"
       id="linearGradient3605"
       xlink:href="#linearGradient3578"
       gradientUnits="userSpaceOnUse" />
    <linearGradient
       x1="579.61249"
       y1="-2053.46"
       x2="633.25787"
       y2="-2073.55"
       id="linearGradient3607"
       xlink:href="#linearGradient3770"
       gradientUnits="userSpaceOnUse"
       gradientTransform="matrix(0.8697037,0.5377184,-0.05088559,2.0041935,-132.86485,4079.057)" />
    <linearGradient
       x1="579.61249"
       y1="-2053.46"
       x2="633.25787"
       y2="-2073.55"
       id="linearGradient3609"
       xlink:href="#linearGradient3770"
       gradientUnits="userSpaceOnUse"
       gradientTransform="matrix(0.8697037,0.5377184,-0.05088559,2.0041935,-132.86485,4082.0622)" />
    <linearGradient
       x1="579.61249"
       y1="-2053.46"
       x2="633.25787"
       y2="-2073.55"
       id="linearGradient3611"
       xlink:href="#linearGradient3770"
       gradientUnits="userSpaceOnUse"
       gradientTransform="matrix(0.8697037,0.5377184,-0.05088559,2.0041935,-132.86485,4085.0674)" />
    <linearGradient
       x1="579.61249"
       y1="-2053.46"
       x2="633.25787"
       y2="-2073.55"
       id="linearGradient3613"
       xlink:href="#linearGradient3770"
       gradientUnits="userSpaceOnUse"
       gradientTransform="matrix(0.8697037,0.5377184,-0.05088559,2.0041935,-132.86485,4088.0726)" />
    <radialGradient
       cx="308.00009"
       cy="237.60178"
       r="13.826746"
       fx="308.00009"
       fy="237.60178"
       id="radialGradient3615"
       xlink:href="#linearGradient2652"
       gradientUnits="userSpaceOnUse"
       gradientTransform="matrix(-2.470026,1.2123383,-2.5289897,-1.8798194,1652.7116,307.88628)" />
    <radialGradient
       cx="313.97348"
       cy="257.40872"
       r="4.0046649"
       fx="313.97348"
       fy="257.40872"
       id="radialGradient3617"
       xlink:href="#linearGradient3558"
       gradientUnits="userSpaceOnUse"
       gradientTransform="matrix(-1.2239386,0.8005673,-1.1669368,-1.1126277,983.68752,289.08822)" />
    <linearGradient
       x1="121.62237"
       y1="166.88406"
       x2="121.62236"
       y2="63.590191"
       id="linearGradient3216"
       xlink:href="#linearGradient3210"
       gradientUnits="userSpaceOnUse"
       gradientTransform="matrix(0.9919329,0,0,0.9919329,103.5495,-172.30174)" />
    <linearGradient
       x1="282.13562"
       y1="198.85522"
       x2="282.13562"
       y2="220.4299"
       id="linearGradient3224"
       xlink:href="#linearGradient3218"
       gradientUnits="userSpaceOnUse" />
    <linearGradient
       x1="282.13562"
       y1="198.85522"
       x2="282.13562"
       y2="220.4299"
       id="linearGradient6356"
       xlink:href="#linearGradient3218"
       gradientUnits="userSpaceOnUse"
       gradientTransform="translate(0,3.1983471)" />
    <filter
       id="filter6426">
      <feGaussianBlur
         id="feGaussianBlur6428"
         stdDeviation="1.3718847"
         inkscape:collect="always" />
    </filter>
    <linearGradient
       x1="313.12421"
       y1="234.06723"
       x2="300.74551"
       y2="252.48558"
       id="linearGradient6436"
       xlink:href="#linearGradient6430"
       gradientUnits="userSpaceOnUse" />
    <filter
       height="1.2099621"
       y="-0.10498104"
       width="1.0989299"
       x="-0.049464952"
       id="filter6542">
      <feGaussianBlur
         id="feGaussianBlur6544"
         stdDeviation="2.6872547"
         inkscape:collect="always" />
    </filter>
    <filter
       id="filter6596">
      <feGaussianBlur
         id="feGaussianBlur6598"
         stdDeviation="1.7274814"
         inkscape:collect="always" />
    </filter>
    <linearGradient
       x1="180"
       y1="163.62605"
       x2="180"
       y2="66.188019"
       id="linearGradient6600"
       xlink:href="#linearGradient3218"
       gradientUnits="userSpaceOnUse" />
    <filter
       id="filter6626">
      <feBlend
         id="feBlend6628"
         in2="BackgroundImage"
         mode="multiply"
         inkscape:collect="always" />
    </filter>
    <linearGradient
       inkscape:collect="always"
       xlink:href="#linearGradient3578"
       id="linearGradient4259"
       x1="195.87218"
       y1="208.11053"
       x2="196.23286"
       y2="238.6171"
       gradientUnits="userSpaceOnUse" />
    <linearGradient
       inkscape:collect="always"
       xlink:href="#linearGradient3578"
       id="linearGradient4261"
       x1="157.89781"
       y1="208.11053"
       x2="157.86797"
       y2="238.6171"
       gradientUnits="userSpaceOnUse" />
    <linearGradient
       inkscape:collect="always"
       xlink:href="#linearGradient3578"
       id="linearGradient4263"
       x1="142.28781"
       y1="208.11053"
       x2="141.93811"
       y2="238.53488"
       gradientUnits="userSpaceOnUse" />
    <linearGradient
       id="linearGradient3578-2">
      <stop
         id="stop3580-0"
         style="stop-color:#000000;stop-opacity:1;"
         offset="0" />
      <stop
         id="stop3582-0"
         style="stop-color:#ffffff;stop-opacity:1"
         offset="1" />
    </linearGradient>
    <linearGradient
       id="linearGradient4286">
      <stop
         id="stop4288"
         style="stop-color:#000000;stop-opacity:1;"
         offset="0" />
      <stop
         id="stop4290"
         style="stop-color:#ffffff;stop-opacity:1"
         offset="1" />
    </linearGradient>
    <linearGradient
       inkscape:collect="always"
       xlink:href="#linearGradient3578-2"
       id="linearGradient4259-5"
       x1="195.87218"
       y1="208.11053"
       x2="196.23286"
       y2="238.6171"
       gradientUnits="userSpaceOnUse" />
    <linearGradient
       id="linearGradient4293">
      <stop
         id="stop4295"
         style="stop-color:#000000;stop-opacity:1;"
         offset="0" />
      <stop
         id="stop4297"
         style="stop-color:#ffffff;stop-opacity:1"
         offset="1" />
    </linearGradient>
  </defs>
  <text
     x="272.23407"
     y="296.57458"
     id="text2432"
     xml:space="preserve"
     style="font-size:13.46161938px;font-style:normal;font-variant:normal;font-weight:normal;font-stretch:normal;text-align:end;line-height:125%;writing-mode:lr-tb;text-anchor:end;fill:#888a85;fill-opacity:1;stroke:none;font-family:Liberation Sans;-inkscape-font-specification:Liberation Sans"
     sodipodi:linespacing="125%"><tspan
       x="272.23407"
       y="296.57458"
       id="tspan2434"
       style="font-size:13.46161938px;font-style:normal;font-variant:normal;font-weight:normal;font-stretch:normal;text-align:end;line-height:125%;letter-spacing:0.44818318;writing-mode:lr-tb;text-anchor:end;fill:#888a85;font-family:Liberation Sans;-inkscape-font-specification:Liberation Sans" /></text>
  <g
     id="layer1" />
  <g
     id="layer2"
     style="filter:url(#filter6626)" />
  <g
     style="font-size:40px;font-style:normal;font-variant:normal;font-weight:normal;font-stretch:normal;line-height:125%;letter-spacing:0px;word-spacing:0px;fill:#1a1a1a;fill-opacity:1;stroke:none;font-family:Liberation Serif;-inkscape-font-specification:Liberation Serif"
     id="text3474"
     transform="translate(0,48.797636)">
    <path
       d="m 151.16781,198.59054 0,-1.16 c 0,-1.68 0.36,-1.88 3.56,-1.88 l 0.8,0 0,-1.88 -13.24,0 0,1.88 0.8,0 c 3.23999,0 3.6,0.2 3.6,1.88 l 0,1.16 0,19.04 0,1.16 c 0,1.68 -0.36001,1.88 -3.6,1.88 l -0.8,0 0,1.88 13.24,0 0,-1.88 -0.8,0 c -3.2,0 -3.56,-0.2 -3.56,-1.88 l 0,-1.16 0,-19.04"
       style="font-weight:500;fill:#1a1a1a;fill-opacity:1;font-family:Century Schoolbook L;-inkscape-font-specification:Century Schoolbook L Medium"
       id="path3479"
       inkscape:connector-curvature="0" />
    <path
       d="m 168.49781,193.67054 -10.32,0 0,1.88 0.76,0 c 3.23999,0 3.6,0.2 3.6,1.88 l 0,1.16 0,15.32 c 0,5.43999 -0.80001,6.6 -4.64,6.76 l 0,1.88 11.4,0 0,-1.88 c -3.8,-0.16 -4.6,-1.32001 -4.6,-6.76 l 0,-17.68 9.52,26.32 1.6,0 8.92,-26.32 0,21.4 0,1.16 c 0,1.72 -0.36001,1.88 -3.6,1.88 l -0.72,0 0,1.88 13.12,0 0,-1.88 -0.72,0 c -3.24,0 -3.6,-0.16 -3.6,-1.88 l 0,-1.16 0,-19.04 0,-1.16 c 0,-1.68 0.36,-1.88 3.6,-1.88 l 0.72,0 0,-1.88 -10.04,0 -7.32,21.32 -7.68,-21.32"
       style="font-weight:500;fill:#1a1a1a;fill-opacity:1;font-family:Century Schoolbook L;-inkscape-font-specification:Century Schoolbook L Medium"
       id="path3481"
       inkscape:connector-curvature="0" />
    <path
       d="m 204.67218,209.71054 4.52,0 c 3.6,0 5.48,-0.28 7.08,-1.04 2.84,-1.36 4.44,-3.92001 4.44,-7.08 0,-3.04 -1.4,-5.36 -4.04,-6.68 -1.56,-0.8 -4.04,-1.24 -6.8,-1.24 l -14,0 0,1.88 0.72,0 c 3.24,0 3.6,0.2 3.6,1.88 l 0,1.16 0,19.04 0,1.16 c 0,1.68 -0.36,1.88 -3.6,1.88 l -0.72,0 0,1.88 13.44,0 0,-1.88 -1.04,0 c -3.23999,0 -3.6,-0.2 -3.6,-1.88 l 0,-1.16 0,-7.92 m 0,-1.88 0,-10.24 c 0,-1.84 0.24,-2.04 2.44,-2.04 l 2.56,0 c 4.16,0 6.12,1.96 6.12,6.2 0,4.11999 -2.04,6.08 -6.28,6.08 l -4.84,0"
       style="font-weight:500;fill:#1a1a1a;fill-opacity:1;font-family:Century Schoolbook L;-inkscape-font-specification:Century Schoolbook L Medium"
       id="path3483"
       inkscape:connector-curvature="0" />
  </g>
  <path
     style="opacity:1;fill:#0093d9;fill-opacity:1;stroke:none;stroke-width:1px;stroke-linecap:butt;stroke-linejoin:miter;stroke-opacity:1"
     d="m 6.4292379,184.46967 348.1679621,1.48367 -48.46656,44.01555 -46.98289,11.86936 -99.40592,-17.30947 -68.248828,7.41834 -51.928461,-15.82581 -30.6625192,8.90202 z"
     id="path4827"
     inkscape:connector-curvature="0"
     sodipodi:nodetypes="ccccccccc" />
  <path
     style="fill:#25afef;fill-opacity:1;stroke:none;stroke-width:1px;stroke-linecap:butt;stroke-linejoin:miter;stroke-opacity:1"
     d="m 18.2986,185.95334 70.721618,2.47279 -32.640747,6.92379 27.695179,5.44013 -17.309487,5.44012 75.914457,6.42924 66.02333,-2.47278 18.79316,3.95645 16.32038,9.39658 -49.95024,3.4619 -46.48833,-6.42924 -28.6843,3.46189 -57.863138,-6.92379 -40.553655,-11.86936 34.618974,-0.49456 z"
     id="path4829"
     inkscape:connector-curvature="0"
     sodipodi:nodetypes="cccccccccccccccc" />
  <path
     style="fill:#25afef;stroke:none;stroke-width:1px;stroke-linecap:butt;stroke-linejoin:miter;stroke-opacity:1;fill-opacity:1"
     d="m 328.88025,189.9098 -20.77139,-0.98912 25.71696,7.41836 z"
     id="path4831"
     inkscape:connector-curvature="0" />
  <path
     style="fill:#25afef;stroke:none;stroke-width:1px;stroke-linecap:butt;stroke-linejoin:round;stroke-opacity:1;fill-opacity:1"
     d="m 281.4028,211.6703 22.74961,1.97822 c 0,0 -0.98911,8.90202 -3.95645,9.39658 -2.96734,0.49456 -8.90203,-4.45101 -8.90203,-4.45101 l -19.78227,9.89114 -5.93468,-14.34215 z"
     id="path4833"
     inkscape:connector-curvature="0" />
  <path
     style="fill:#d1fcff;fill-opacity:1;stroke:#d1fcff;stroke-linejoin:round;stroke-opacity:1"
     d="m 8.7060342,159.24728 344.4164158,0 L 324.15552,135.20559 314.90057,57.625725 293.48135,6.873183 227.13498,15.236561 183.00699,70.9532 118.11023,51.118753 46.297613,97.914633 30.469165,143.29402 z"
     id="path4837"
     inkscape:connector-curvature="0"
     sodipodi:nodetypes="ccccccccccc" />
  <path
     style="fill:#004e86;fill-opacity:1;stroke:none"
     d="m 118.68332,206.37503 c 1.97823,0.49455 63.31357,-19.43257 63.31357,-19.43257 l 102.86781,-0.98912 26.21151,18.2986 -46.48834,4.45101 -34.12442,-7.41835 z"
     id="path4839"
     inkscape:connector-curvature="0"
     sodipodi:nodetypes="ccccccc" />
  <path
     style="fill:#666666;stroke:#666666;stroke-width:1px;stroke-linecap:butt;stroke-linejoin:miter;stroke-opacity:1"
     d="M 49.658031,46.629353 235.00139,97.686201"
     id="path4885"
     inkscape:connector-curvature="0" />
  <path
     style="fill:#666666;stroke:#666666;stroke-width:1px;stroke-linecap:butt;stroke-linejoin:miter;stroke-opacity:1"
     d="M 48.958622,40.334673 C 51.756257,41.733491 246.19193,89.293295 246.19193,89.293295"
     id="path4881"
     inkscape:connector-curvature="0" />
  <path
     style="fill:#666666;stroke:#666666;stroke-width:1px;stroke-linecap:butt;stroke-linejoin:miter;stroke-opacity:1"
     d="m 49.658031,43.132308 c 4.196453,2.098227 192.337439,50.35744 192.337439,50.35744"
     id="path4883"
     inkscape:connector-curvature="0" />
  <path
     style="fill:#666666;stroke:#666666;stroke-width:1px;stroke-linecap:butt;stroke-linejoin:miter;stroke-opacity:1"
     d="M 41.964533,48.727579 39.866306,131.60753"
     id="path4879"
     inkscape:connector-curvature="0"
     sodipodi:nodetypes="cc" />
  <path
     style="fill:#ecd301;stroke:none;stroke-width:1px;stroke-linecap:butt;stroke-linejoin:miter;stroke-opacity:1;fill-opacity:1"
     d="M 118.69362,132.54121 35.608087,44.015552 47.477449,34.618974 155.78538,131.5521 z"
     id="path4875"
     inkscape:connector-curvature="0" />
  <path
     style="fill:none;stroke:#666666;stroke-width:1px;stroke-linecap:butt;stroke-linejoin:miter;stroke-opacity:1"
     d="m 244.31104,101.13686 9.1493,28.68429"
     id="path4887"
     inkscape:connector-curvature="0" />
  <path
     style="fill:none;stroke:#666666;stroke-width:1px;stroke-linecap:butt;stroke-linejoin:miter;stroke-opacity:1"
     d="m 246.28927,95.696734 12.6112,34.124416"
     id="path4889"
     inkscape:connector-curvature="0" />
  <path
     style="fill:none;stroke:#666666;stroke-width:1px;stroke-linecap:butt;stroke-linejoin:miter;stroke-opacity:1"
     d="m 248.51477,91.74028 19.535,39.06998"
     id="path4891"
     inkscape:connector-curvature="0" />
  <path
     style="fill:#ecd301;stroke:none;stroke-width:1px;stroke-linecap:butt;stroke-linejoin:miter;stroke-opacity:1;fill-opacity:1"
     d="m 204.25194,129.57387 40.0591,-47.972004 13.35303,6.923795 -26.2115,45.993779 0,0 0,0 z"
     id="path4877"
     inkscape:connector-curvature="0" />
  <path
     style="fill:#ed4722;stroke:#ed4722;stroke-width:1px;stroke-linecap:round;stroke-linejoin:round;stroke-opacity:1;fill-opacity:1"
     d="m 96.933126,205.24106 24.727834,2.47278 2.47279,-58.3577 110.28616,0.98912 0,58.35769 29.17885,0.49456 0.49455,-62.31415 14.83671,-12.36392 -7.91291,-7.41835 -182.491449,-1.48367 -7.418352,4.45101 14.342147,9.39658 z"
     id="path4835"
     inkscape:connector-curvature="0" />
  <path
     style="fill:none;stroke:#666666;stroke-width:1px;stroke-linecap:butt;stroke-linejoin:miter;stroke-opacity:1"
     d="M 226.25972,83.580093 220.8196,95.944012"
     id="path4893"
     inkscape:connector-curvature="0" />
  <path
     style="fill:none;stroke:#666666;stroke-width:1px;stroke-linecap:butt;stroke-linejoin:miter;stroke-opacity:1"
     d="m 79.033204,46.629353 -3.497044,9.44202"
     id="path4895"
     inkscape:connector-curvature="0" />
  <path
     style="fill:#666666;stroke:#666666;stroke-width:1px;stroke-linecap:butt;stroke-linejoin:miter;stroke-opacity:1;enable-background:new"
     d="m 43.887908,49.776697 -3.14734,81.830833"
     id="path4879-8"
     inkscape:connector-curvature="0"
     sodipodi:nodetypes="cc" />
  <path
     style="fill:#333333;stroke:#333333;stroke-width:1px;stroke-linecap:butt;stroke-linejoin:round;stroke-opacity:1"
     d="m 43.188499,128.28534 -6.29468,0.52456 0,6.29468 5.944975,-0.34971 z"
     id="path4915"
     inkscape:connector-curvature="0" />
  <path
     style="fill:none;stroke:#333333;stroke-width:1px;stroke-linecap:round;stroke-linejoin:round;stroke-opacity:1"
     d="m 39.669853,133.95725 0,6.64438 2.447931,1.57367 2.098227,-2.27307"
     id="path4917"
     inkscape:connector-curvature="0" />
  <flowRoot
     xml:space="preserve"
     id="flowRoot3840"
     style="font-size:40px;font-style:normal;font-variant:normal;font-weight:normal;font-stretch:normal;text-align:center;line-height:125%;letter-spacing:0px;word-spacing:0px;text-anchor:middle;fill:#000000;fill-opacity:1;stroke:none;font-family:Liberation Serif;-inkscape-font-specification:Liberation Serif"
     transform="translate(172.35156,209.12326)"><flowRegion
       id="flowRegion3842"><rect
         id="rect3844"
         width="342.71033"
         height="163.6617"
         x="-162.26286"
         y="67.611618"
         style="text-align:center;text-anchor:middle" /></flowRegion><flowPara
       id="flowPara3846"
       style="font-size:14px;font-style:normal;font-variant:normal;font-weight:normal;font-stretch:normal;text-align:center;text-anchor:middle;fill:#999999;font-family:Sans;-inkscape-font-specification:Sans">A PLATFORM FOR THE HEAVY LIFTING IN CONFIGURATION MANAGEMENT</flowPara></flowRoot></svg>
